<?xml version="1.0" encoding="utf-8"?>
<!-- Generator: Adobe Illustrator 24.3.0, SVG Export Plug-In . SVG Version: 6.00 Build 0)  -->
<svg version="1.1" id="Layer_1" xmlns="http://www.w3.org/2000/svg" xmlns:xlink="http://www.w3.org/1999/xlink" x="0px" y="0px"
	 viewBox="0 0 180 180" enable-background="new 0 0 180 180" xml:space="preserve">
<g>
	<g id="XMLID_220_">
		<path fill="#FFDB76" d="M154.622,89.999c0,35.691-28.933,64.623-64.623,64.623c-35.689,0-64.621-28.932-64.621-64.623
			c0-35.689,28.932-64.621,64.621-64.621C125.689,25.378,154.622,54.31,154.622,89.999z"/>
	</g>
	<g>
		<g id="XMLID_219_">
			<path fill="#333333" d="M90.937,136.181c-0.208,0-0.378-0.167-0.383-0.376c-0.004-0.213,0.164-0.388,0.376-0.392
				c0.635-0.014,1.274-0.039,1.902-0.078c0.212-0.016,0.394,0.148,0.406,0.36c0.014,0.212-0.148,0.394-0.359,0.406
				c-0.638,0.04-1.289,0.066-1.935,0.079C90.942,136.181,90.939,136.181,90.937,136.181z M89.018,136.18c-0.003,0-0.006,0-0.008,0
				c-0.641-0.014-1.29-0.04-1.934-0.081c-0.212-0.013-0.373-0.195-0.359-0.406c0.014-0.212,0.199-0.374,0.406-0.359
				c0.634,0.039,1.273,0.065,1.902,0.079c0.213,0.004,0.381,0.18,0.377,0.392C89.397,136.013,89.227,136.18,89.018,136.18z
				 M94.768,135.944c-0.195,0-0.362-0.146-0.382-0.344c-0.021-0.211,0.132-0.399,0.343-0.421c0.63-0.066,1.267-0.146,1.889-0.236
				c0.206-0.03,0.404,0.115,0.435,0.325c0.031,0.209-0.115,0.404-0.324,0.436c-0.633,0.091-1.279,0.173-1.921,0.238
				C94.794,135.944,94.78,135.944,94.768,135.944z M85.188,135.94c-0.014,0-0.026-0.001-0.041-0.003
				c-0.637-0.065-1.283-0.146-1.92-0.24c-0.21-0.03-0.355-0.226-0.324-0.436c0.031-0.21,0.226-0.357,0.436-0.324
				c0.626,0.092,1.261,0.171,1.888,0.237c0.211,0.021,0.363,0.211,0.342,0.421C85.548,135.794,85.382,135.94,85.188,135.94z
				 M98.564,135.391c-0.18,0-0.342-0.129-0.377-0.312c-0.039-0.209,0.098-0.409,0.306-0.449c0.622-0.117,1.249-0.249,1.862-0.393
				c0.207-0.049,0.414,0.081,0.462,0.287c0.048,0.206-0.081,0.412-0.287,0.461c-0.624,0.146-1.261,0.28-1.894,0.4
				C98.612,135.389,98.588,135.391,98.564,135.391z M81.392,135.382c-0.024,0-0.048-0.002-0.072-0.007
				c-0.633-0.12-1.271-0.255-1.894-0.401c-0.208-0.048-0.335-0.256-0.286-0.462c0.048-0.206,0.253-0.335,0.461-0.285
				c0.613,0.143,1.239,0.276,1.862,0.395c0.208,0.04,0.345,0.24,0.306,0.448C81.732,135.255,81.572,135.382,81.392,135.382z
				 M102.302,134.52c-0.167,0-0.322-0.111-0.37-0.281c-0.056-0.204,0.064-0.416,0.268-0.473c0.61-0.17,1.224-0.355,1.822-0.55
				c0.202-0.065,0.419,0.047,0.483,0.247c0.067,0.201-0.045,0.419-0.246,0.483c-0.609,0.198-1.233,0.386-1.854,0.559
				C102.371,134.515,102.337,134.52,102.302,134.52z M77.654,134.507c-0.033,0-0.069-0.004-0.104-0.014
				c-0.62-0.173-1.242-0.361-1.853-0.559c-0.202-0.066-0.312-0.282-0.247-0.483c0.065-0.202,0.283-0.312,0.484-0.247
				c0.6,0.195,1.213,0.38,1.822,0.551c0.204,0.057,0.323,0.268,0.266,0.473C77.977,134.396,77.822,134.507,77.654,134.507z
				 M105.953,133.335c-0.156,0-0.302-0.096-0.36-0.25c-0.073-0.198,0.028-0.42,0.227-0.493c0.59-0.22,1.183-0.454,1.765-0.698
				c0.197-0.083,0.421,0.01,0.503,0.204c0.082,0.196-0.01,0.421-0.205,0.504c-0.591,0.248-1.195,0.487-1.795,0.71
				C106.043,133.328,105.998,133.335,105.953,133.335z M74,133.318c-0.045,0-0.09-0.009-0.134-0.025
				c-0.604-0.224-1.21-0.465-1.804-0.715c-0.195-0.083-0.287-0.308-0.205-0.504c0.083-0.194,0.307-0.287,0.503-0.204
				c0.585,0.246,1.182,0.483,1.772,0.704c0.199,0.074,0.301,0.295,0.227,0.494C74.302,133.223,74.155,133.318,74,133.318z
				 M109.482,131.853c-0.145,0-0.282-0.082-0.348-0.221c-0.09-0.192-0.008-0.421,0.185-0.511c0.568-0.269,1.14-0.553,1.7-0.845
				c0.189-0.099,0.421-0.025,0.519,0.162c0.099,0.189,0.025,0.42-0.163,0.519c-0.568,0.297-1.151,0.587-1.729,0.858
				C109.593,131.841,109.537,131.853,109.482,131.853z M70.455,131.823c-0.054,0-0.11-0.012-0.163-0.037
				c-0.581-0.274-1.165-0.564-1.735-0.865c-0.188-0.098-0.261-0.33-0.161-0.518c0.098-0.188,0.33-0.26,0.518-0.162
				c0.562,0.296,1.137,0.581,1.706,0.851c0.191,0.091,0.274,0.319,0.184,0.511C70.737,131.742,70.6,131.823,70.455,131.823z
				 M112.877,130.076c-0.133,0-0.262-0.068-0.333-0.191c-0.106-0.184-0.044-0.419,0.141-0.524c0.547-0.316,1.094-0.646,1.626-0.984
				c0.179-0.114,0.416-0.061,0.529,0.117c0.114,0.18,0.061,0.417-0.117,0.53c-0.541,0.344-1.099,0.681-1.653,1.003
				C113.009,130.061,112.941,130.076,112.877,130.076z M67.052,130.036c-0.066,0-0.132-0.017-0.191-0.052
				c-0.558-0.322-1.114-0.661-1.656-1.008c-0.179-0.113-0.231-0.351-0.117-0.529c0.113-0.179,0.352-0.231,0.53-0.117
				c0.532,0.339,1.081,0.673,1.627,0.99c0.184,0.106,0.247,0.342,0.14,0.524C67.313,129.968,67.185,130.036,67.052,130.036z
				 M116.113,128.022c-0.122,0-0.242-0.057-0.315-0.165c-0.122-0.174-0.078-0.413,0.096-0.534c0.52-0.361,1.038-0.738,1.539-1.117
				c0.169-0.129,0.409-0.095,0.538,0.073c0.127,0.169,0.095,0.41-0.075,0.538c-0.508,0.386-1.035,0.769-1.563,1.137
				C116.266,128,116.189,128.022,116.113,128.022z M63.813,127.972c-0.077,0-0.153-0.022-0.221-0.07
				c-0.526-0.367-1.054-0.751-1.563-1.141c-0.169-0.129-0.202-0.37-0.073-0.538c0.128-0.169,0.369-0.201,0.538-0.073
				c0.503,0.384,1.02,0.762,1.538,1.123c0.175,0.122,0.217,0.361,0.096,0.534C64.052,127.914,63.934,127.972,63.813,127.972z
				 M119.168,125.704c-0.11,0-0.221-0.047-0.297-0.139c-0.135-0.163-0.112-0.406,0.052-0.541c0.487-0.404,0.973-0.821,1.44-1.242
				c0.158-0.143,0.401-0.129,0.544,0.028c0.141,0.157,0.128,0.4-0.03,0.543c-0.476,0.427-0.969,0.852-1.465,1.264
				C119.34,125.676,119.254,125.704,119.168,125.704z M60.757,125.644c-0.086,0-0.173-0.029-0.245-0.089
				c-0.494-0.41-0.986-0.838-1.463-1.268c-0.157-0.142-0.17-0.385-0.028-0.542c0.143-0.157,0.387-0.17,0.544-0.027
				c0.468,0.423,0.952,0.842,1.439,1.247c0.163,0.135,0.185,0.376,0.05,0.54C60.978,125.597,60.867,125.644,60.757,125.644z
				 M122.021,123.138c-0.101,0-0.198-0.037-0.274-0.115c-0.148-0.15-0.146-0.395,0.006-0.542c0.452-0.443,0.9-0.9,1.334-1.359
				c0.144-0.154,0.388-0.162,0.542-0.017c0.154,0.146,0.162,0.389,0.017,0.543c-0.439,0.467-0.896,0.932-1.355,1.382
				C122.215,123.103,122.117,123.138,122.021,123.138z M57.909,123.07c-0.097,0-0.194-0.037-0.269-0.11
				c-0.459-0.451-0.914-0.917-1.353-1.385c-0.145-0.154-0.137-0.397,0.019-0.542c0.153-0.146,0.397-0.138,0.542,0.018
				c0.431,0.46,0.879,0.917,1.33,1.361c0.152,0.148,0.153,0.393,0.005,0.543C58.107,123.032,58.008,123.07,57.909,123.07z
				 M124.65,120.344c-0.088,0-0.178-0.031-0.251-0.094c-0.16-0.139-0.178-0.382-0.039-0.542c0.413-0.478,0.822-0.971,1.215-1.466
				c0.133-0.167,0.374-0.192,0.54-0.062c0.166,0.131,0.194,0.374,0.062,0.54c-0.4,0.503-0.815,1.005-1.236,1.489
				C124.865,120.299,124.758,120.344,124.65,120.344z M55.285,120.271c-0.108,0-0.215-0.046-0.291-0.133
				c-0.42-0.488-0.834-0.989-1.232-1.492c-0.131-0.166-0.103-0.407,0.064-0.54c0.167-0.131,0.407-0.103,0.539,0.063
				c0.391,0.493,0.799,0.986,1.211,1.467c0.139,0.161,0.121,0.403-0.039,0.541C55.463,120.239,55.374,120.271,55.285,120.271z
				 M127.04,117.337c-0.078,0-0.157-0.023-0.226-0.074c-0.172-0.125-0.209-0.364-0.084-0.536c0.371-0.51,0.739-1.036,1.09-1.562
				c0.117-0.178,0.355-0.226,0.532-0.107c0.176,0.117,0.223,0.355,0.106,0.533c-0.356,0.535-0.73,1.07-1.108,1.589
				C127.275,117.282,127.158,117.337,127.04,117.337z M52.904,117.263c-0.118,0-0.236-0.055-0.312-0.158
				c-0.378-0.521-0.748-1.055-1.103-1.588c-0.116-0.178-0.068-0.415,0.108-0.533c0.177-0.118,0.415-0.069,0.532,0.107
				c0.348,0.524,0.714,1.05,1.085,1.562c0.124,0.172,0.086,0.412-0.086,0.536C53.062,117.239,52.983,117.263,52.904,117.263z
				 M129.171,114.141c-0.068,0-0.137-0.018-0.198-0.056c-0.183-0.111-0.239-0.347-0.13-0.528c0.328-0.538,0.65-1.093,0.955-1.648
				c0.103-0.185,0.337-0.253,0.523-0.151c0.186,0.104,0.254,0.337,0.151,0.522c-0.312,0.565-0.639,1.129-0.973,1.677
				C129.427,114.074,129.301,114.141,129.171,114.141z M50.785,114.069c-0.131,0-0.258-0.066-0.329-0.187
				c-0.333-0.548-0.657-1.11-0.966-1.672c-0.102-0.187-0.035-0.42,0.151-0.521c0.186-0.103,0.419-0.035,0.521,0.151
				c0.304,0.552,0.622,1.104,0.95,1.645c0.109,0.183,0.051,0.418-0.131,0.529C50.921,114.052,50.853,114.069,50.785,114.069z
				 M131.028,110.775c-0.059,0-0.116-0.013-0.172-0.04c-0.189-0.095-0.267-0.325-0.173-0.516c0.283-0.568,0.558-1.147,0.814-1.725
				c0.087-0.193,0.314-0.28,0.507-0.193c0.193,0.086,0.28,0.312,0.194,0.508c-0.262,0.585-0.54,1.175-0.827,1.753
				C131.305,110.697,131.169,110.775,131.028,110.775z M48.939,110.711c-0.142,0-0.277-0.078-0.344-0.213
				c-0.285-0.575-0.562-1.163-0.821-1.748c-0.086-0.193,0-0.421,0.195-0.507c0.191-0.086,0.42,0.001,0.506,0.195
				c0.256,0.575,0.528,1.153,0.808,1.718c0.095,0.19,0.017,0.42-0.174,0.515C49.055,110.698,48.997,110.711,48.939,110.711z
				 M132.596,107.264c-0.048,0-0.096-0.009-0.143-0.027c-0.196-0.078-0.293-0.302-0.215-0.499c0.233-0.588,0.458-1.189,0.666-1.787
				c0.07-0.201,0.289-0.307,0.489-0.236c0.199,0.069,0.306,0.288,0.236,0.488c-0.213,0.608-0.439,1.221-0.678,1.818
				C132.893,107.172,132.748,107.264,132.596,107.264z M47.385,107.213c-0.154,0-0.299-0.091-0.358-0.243
				c-0.236-0.598-0.463-1.209-0.673-1.813c-0.07-0.201,0.036-0.419,0.236-0.489c0.2-0.069,0.42,0.036,0.489,0.236
				c0.206,0.596,0.429,1.195,0.661,1.784c0.078,0.198-0.019,0.42-0.215,0.498C47.479,107.204,47.431,107.213,47.385,107.213z
				 M133.862,103.63c-0.037,0-0.074-0.006-0.111-0.017c-0.203-0.062-0.318-0.275-0.257-0.479c0.183-0.606,0.354-1.225,0.511-1.833
				c0.054-0.206,0.263-0.33,0.468-0.277c0.205,0.053,0.329,0.263,0.275,0.468c-0.157,0.62-0.333,1.246-0.518,1.864
				C134.179,103.521,134.027,103.63,133.862,103.63z M46.124,103.588c-0.165,0-0.317-0.107-0.367-0.274
				c-0.185-0.613-0.359-1.242-0.518-1.865c-0.053-0.205,0.071-0.413,0.277-0.466c0.206-0.053,0.415,0.072,0.467,0.277
				c0.156,0.612,0.327,1.229,0.509,1.833c0.062,0.203-0.054,0.418-0.257,0.478C46.198,103.582,46.162,103.588,46.124,103.588z
				 M134.813,99.911c-0.026,0-0.053-0.002-0.079-0.008c-0.207-0.044-0.341-0.248-0.297-0.455c0.131-0.617,0.251-1.246,0.355-1.87
				c0.035-0.209,0.231-0.35,0.442-0.315c0.209,0.035,0.35,0.233,0.315,0.443c-0.107,0.634-0.228,1.274-0.36,1.9
				C135.151,99.788,134.992,99.911,134.813,99.911z M45.176,99.869c-0.178,0-0.338-0.124-0.375-0.306
				c-0.133-0.628-0.253-1.268-0.359-1.902c-0.034-0.209,0.107-0.406,0.316-0.441c0.21-0.035,0.406,0.107,0.441,0.316
				c0.104,0.623,0.223,1.252,0.354,1.869c0.043,0.208-0.089,0.412-0.298,0.455C45.229,99.865,45.202,99.869,45.176,99.869z
				 M135.449,96.127c-0.015,0-0.031-0.001-0.048-0.004c-0.211-0.025-0.359-0.218-0.334-0.428c0.078-0.626,0.146-1.263,0.197-1.894
				c0.018-0.211,0.203-0.37,0.414-0.351c0.212,0.017,0.369,0.203,0.352,0.414c-0.053,0.642-0.12,1.289-0.2,1.925
				C135.806,95.984,135.641,96.127,135.449,96.127z M44.544,96.084c-0.191,0-0.356-0.142-0.381-0.337
				c-0.079-0.638-0.146-1.285-0.198-1.926c-0.018-0.211,0.141-0.396,0.352-0.413c0.213-0.019,0.397,0.14,0.414,0.352
				c0.052,0.628,0.117,1.266,0.195,1.893c0.025,0.21-0.123,0.402-0.334,0.429C44.575,96.083,44.56,96.084,44.544,96.084z
				 M135.768,92.302c-0.007,0-0.011,0-0.018,0c-0.211-0.008-0.376-0.188-0.367-0.399c0.025-0.632,0.039-1.272,0.039-1.903
				c0-0.212,0.172-0.383,0.384-0.383s0.385,0.171,0.385,0.383c0,0.642-0.014,1.292-0.04,1.936
				C136.143,92.141,135.972,92.302,135.768,92.302z M44.23,92.259c-0.205,0-0.375-0.162-0.383-0.368
				c-0.025-0.624-0.038-1.261-0.038-1.892v-0.044c0-0.212,0.172-0.383,0.384-0.383c0.212,0,0.384,0.171,0.384,0.383v0.044
				c0,0.621,0.013,1.246,0.037,1.86c0.009,0.212-0.156,0.39-0.368,0.398C44.242,92.259,44.235,92.259,44.23,92.259z M135.77,88.552
				c-0.205,0-0.375-0.161-0.384-0.367c-0.024-0.634-0.062-1.272-0.113-1.901c-0.018-0.211,0.14-0.396,0.352-0.413
				c0.211-0.021,0.396,0.141,0.413,0.353c0.053,0.638,0.091,1.288,0.116,1.931c0.009,0.212-0.156,0.391-0.368,0.398
				C135.779,88.552,135.774,88.552,135.77,88.552z M44.234,88.421c-0.005,0-0.012,0-0.016,0c-0.213-0.01-0.377-0.188-0.368-0.4
				c0.027-0.643,0.068-1.291,0.121-1.932c0.019-0.211,0.204-0.368,0.415-0.35c0.211,0.017,0.369,0.203,0.352,0.414
				c-0.054,0.63-0.094,1.269-0.12,1.899C44.609,88.26,44.439,88.421,44.234,88.421z M135.46,84.727
				c-0.191,0-0.357-0.143-0.382-0.336c-0.077-0.629-0.169-1.263-0.271-1.884c-0.036-0.209,0.105-0.407,0.315-0.441
				c0.21-0.035,0.407,0.106,0.441,0.315c0.105,0.632,0.198,1.276,0.276,1.916c0.026,0.21-0.123,0.402-0.333,0.428
				C135.49,84.727,135.476,84.727,135.46,84.727z M44.556,84.597c-0.016,0-0.032-0.001-0.049-0.003
				c-0.21-0.026-0.358-0.22-0.332-0.43c0.08-0.637,0.175-1.282,0.282-1.914c0.035-0.209,0.232-0.351,0.442-0.316
				c0.209,0.036,0.351,0.234,0.313,0.444c-0.104,0.62-0.197,1.254-0.277,1.882C44.912,84.455,44.746,84.597,44.556,84.597z
				 M134.831,80.942c-0.178,0-0.338-0.125-0.375-0.307c-0.129-0.616-0.274-1.239-0.43-1.854c-0.052-0.205,0.072-0.414,0.277-0.467
				c0.206-0.052,0.414,0.072,0.467,0.277c0.158,0.624,0.306,1.259,0.436,1.886c0.044,0.209-0.09,0.412-0.297,0.455
				C134.883,80.939,134.856,80.942,134.831,80.942z M45.194,80.812c-0.026,0-0.053-0.002-0.08-0.007
				c-0.207-0.045-0.34-0.249-0.295-0.456c0.133-0.629,0.282-1.263,0.442-1.884c0.053-0.206,0.261-0.33,0.467-0.277
				c0.205,0.053,0.329,0.263,0.276,0.468c-0.157,0.611-0.304,1.234-0.434,1.853C45.532,80.688,45.372,80.812,45.194,80.812z
				 M133.887,77.223c-0.166,0-0.318-0.108-0.368-0.274c-0.181-0.606-0.378-1.216-0.584-1.811c-0.069-0.201,0.036-0.42,0.237-0.489
				c0.2-0.069,0.418,0.037,0.488,0.237c0.211,0.605,0.41,1.226,0.595,1.843c0.061,0.202-0.055,0.417-0.258,0.476
				C133.961,77.217,133.923,77.223,133.887,77.223z M46.15,77.096c-0.037,0-0.075-0.006-0.111-0.017
				c-0.203-0.062-0.317-0.276-0.256-0.479c0.186-0.616,0.388-1.237,0.601-1.846c0.07-0.201,0.289-0.307,0.489-0.235
				c0.2,0.069,0.306,0.289,0.236,0.488c-0.209,0.599-0.407,1.209-0.591,1.815C46.468,76.989,46.315,77.096,46.15,77.096z
				 M132.632,73.595c-0.152,0-0.299-0.092-0.357-0.242c-0.23-0.586-0.478-1.175-0.732-1.751c-0.086-0.194,0.001-0.422,0.195-0.507
				c0.192-0.086,0.42,0.001,0.506,0.195c0.26,0.586,0.511,1.185,0.746,1.78c0.078,0.197-0.02,0.421-0.218,0.497
				C132.727,73.587,132.678,73.595,132.632,73.595z M47.42,73.463c-0.047,0-0.096-0.009-0.143-0.027
				c-0.196-0.079-0.292-0.302-0.215-0.499c0.239-0.6,0.492-1.199,0.755-1.786c0.087-0.193,0.314-0.28,0.508-0.193
				c0.193,0.086,0.28,0.314,0.193,0.506c-0.258,0.578-0.508,1.168-0.741,1.758C47.717,73.372,47.572,73.463,47.42,73.463z
				 M131.08,70.096c-0.142,0-0.278-0.079-0.346-0.214c-0.279-0.563-0.573-1.131-0.877-1.685c-0.103-0.186-0.034-0.419,0.151-0.521
				c0.186-0.102,0.419-0.034,0.521,0.152c0.31,0.563,0.609,1.14,0.893,1.713c0.095,0.189,0.017,0.42-0.174,0.515
				C131.195,70.083,131.137,70.096,131.08,70.096z M48.99,69.953c-0.057,0-0.116-0.014-0.171-0.041
				c-0.19-0.095-0.267-0.325-0.172-0.516c0.287-0.575,0.591-1.152,0.901-1.715c0.104-0.186,0.337-0.254,0.523-0.15
				c0.185,0.104,0.253,0.336,0.15,0.521c-0.306,0.553-0.605,1.121-0.888,1.688C49.267,69.875,49.132,69.953,48.99,69.953z
				 M129.237,66.735c-0.129,0-0.257-0.065-0.328-0.185c-0.326-0.54-0.667-1.08-1.017-1.606c-0.117-0.177-0.068-0.415,0.107-0.532
				c0.177-0.118,0.415-0.069,0.532,0.108c0.355,0.535,0.703,1.085,1.033,1.633c0.11,0.182,0.053,0.418-0.129,0.527
				C129.374,66.719,129.305,66.735,129.237,66.735z M50.851,66.588c-0.068,0-0.137-0.018-0.2-0.055
				c-0.181-0.11-0.238-0.347-0.127-0.528c0.333-0.549,0.684-1.099,1.041-1.633c0.118-0.177,0.357-0.225,0.533-0.106
				c0.177,0.117,0.224,0.356,0.105,0.533c-0.351,0.525-0.695,1.065-1.024,1.605C51.106,66.523,50.98,66.588,50.851,66.588z
				 M127.121,63.54c-0.12,0-0.236-0.055-0.312-0.158c-0.371-0.512-0.758-1.023-1.147-1.517c-0.132-0.167-0.104-0.408,0.062-0.54
				c0.166-0.132,0.408-0.104,0.54,0.063c0.397,0.504,0.789,1.023,1.167,1.542c0.124,0.172,0.086,0.412-0.086,0.536
				C127.277,63.517,127.198,63.54,127.121,63.54z M52.984,63.396c-0.079,0-0.159-0.024-0.227-0.074
				c-0.171-0.126-0.209-0.366-0.083-0.536c0.378-0.518,0.772-1.036,1.175-1.541c0.131-0.166,0.374-0.192,0.54-0.06
				c0.165,0.132,0.192,0.373,0.06,0.539c-0.394,0.497-0.783,1.007-1.155,1.515C53.22,63.341,53.104,63.396,52.984,63.396z
				 M124.743,60.53c-0.108,0-0.216-0.045-0.293-0.134c-0.411-0.479-0.839-0.956-1.27-1.416c-0.144-0.155-0.137-0.398,0.019-0.543
				c0.154-0.145,0.397-0.137,0.543,0.018c0.438,0.468,0.872,0.953,1.292,1.441c0.138,0.16,0.119,0.403-0.042,0.542
				C124.92,60.5,124.831,60.53,124.743,60.53z M55.377,60.391c-0.09,0-0.179-0.031-0.252-0.094c-0.16-0.139-0.177-0.381-0.038-0.541
				c0.42-0.484,0.855-0.968,1.298-1.437c0.146-0.154,0.39-0.161,0.543-0.016c0.154,0.146,0.162,0.388,0.017,0.543
				c-0.436,0.461-0.864,0.937-1.277,1.411C55.591,60.347,55.484,60.391,55.377,60.391z M122.122,57.728
				c-0.098,0-0.195-0.036-0.271-0.109c-0.449-0.443-0.916-0.883-1.384-1.307c-0.157-0.143-0.169-0.385-0.027-0.542
				c0.142-0.157,0.385-0.17,0.542-0.027c0.476,0.431,0.95,0.878,1.408,1.328c0.151,0.148,0.153,0.392,0.005,0.543
				C122.319,57.689,122.221,57.728,122.122,57.728z M58.01,57.598c-0.1,0-0.199-0.038-0.274-0.115
				c-0.148-0.152-0.146-0.394,0.007-0.543c0.46-0.45,0.935-0.895,1.412-1.323c0.159-0.142,0.401-0.128,0.542,0.029
				c0.142,0.157,0.13,0.401-0.028,0.543c-0.469,0.421-0.937,0.858-1.39,1.301C58.203,57.562,58.106,57.598,58.01,57.598z
				 M119.274,55.151c-0.086,0-0.173-0.029-0.244-0.088c-0.488-0.406-0.989-0.806-1.49-1.188c-0.169-0.129-0.2-0.37-0.072-0.538
				c0.129-0.168,0.37-0.201,0.538-0.072c0.51,0.389,1.019,0.795,1.515,1.207c0.164,0.135,0.186,0.378,0.05,0.54
				C119.494,55.105,119.385,55.151,119.274,55.151z M60.865,55.034c-0.11,0-0.22-0.047-0.296-0.139
				c-0.135-0.164-0.112-0.406,0.052-0.541c0.497-0.41,1.008-0.813,1.517-1.199c0.17-0.128,0.411-0.095,0.539,0.074
				c0.128,0.17,0.094,0.41-0.075,0.537c-0.501,0.379-1.003,0.776-1.492,1.181C61.038,55.006,60.952,55.034,60.865,55.034z
				 M116.223,52.822c-0.076,0-0.153-0.022-0.22-0.07c-0.518-0.361-1.051-0.718-1.584-1.059c-0.179-0.114-0.231-0.353-0.117-0.531
				c0.114-0.178,0.352-0.231,0.53-0.117c0.543,0.348,1.085,0.71,1.61,1.077c0.175,0.122,0.216,0.362,0.095,0.535
				C116.463,52.765,116.343,52.822,116.223,52.822z M63.923,52.72c-0.121,0-0.241-0.059-0.316-0.165
				c-0.119-0.175-0.077-0.414,0.098-0.535c0.526-0.365,1.069-0.724,1.611-1.068c0.178-0.113,0.416-0.06,0.529,0.119
				c0.113,0.18,0.061,0.417-0.119,0.53c-0.532,0.337-1.065,0.691-1.584,1.051C64.074,52.697,63.998,52.72,63.923,52.72z
				 M112.985,50.753c-0.066,0-0.133-0.016-0.193-0.052c-0.548-0.317-1.108-0.629-1.668-0.923c-0.188-0.099-0.26-0.331-0.161-0.519
				c0.1-0.188,0.331-0.26,0.52-0.161c0.568,0.3,1.139,0.614,1.695,0.938c0.185,0.107,0.246,0.343,0.139,0.525
				C113.246,50.685,113.117,50.753,112.985,50.753z M67.161,50.669c-0.134,0-0.262-0.07-0.333-0.192
				c-0.105-0.184-0.043-0.419,0.141-0.524c0.555-0.32,1.125-0.633,1.694-0.93c0.188-0.099,0.42-0.025,0.518,0.162
				c0.098,0.188,0.025,0.42-0.162,0.519c-0.56,0.292-1.121,0.6-1.666,0.914C67.292,50.651,67.226,50.669,67.161,50.669z
				 M109.583,48.963c-0.056,0-0.11-0.012-0.164-0.037c-0.574-0.271-1.159-0.533-1.741-0.78c-0.195-0.082-0.286-0.308-0.203-0.502
				c0.082-0.195,0.308-0.287,0.503-0.205c0.592,0.25,1.188,0.517,1.771,0.793c0.191,0.091,0.272,0.319,0.183,0.512
				C109.865,48.882,109.728,48.963,109.583,48.963z M70.557,48.896c-0.144,0-0.282-0.081-0.347-0.221
				c-0.091-0.192-0.008-0.421,0.185-0.512c0.579-0.271,1.173-0.536,1.764-0.783c0.195-0.082,0.421,0.011,0.502,0.206
				c0.083,0.195-0.009,0.42-0.205,0.503c-0.58,0.243-1.164,0.502-1.735,0.771C70.667,48.885,70.612,48.896,70.557,48.896z
				 M106.041,47.465c-0.045,0-0.09-0.007-0.134-0.024c-0.595-0.222-1.2-0.435-1.802-0.63c-0.202-0.066-0.312-0.283-0.246-0.484
				c0.065-0.202,0.281-0.312,0.483-0.247c0.612,0.201,1.229,0.417,1.832,0.642c0.199,0.075,0.3,0.296,0.226,0.495
				C106.343,47.369,106.195,47.465,106.041,47.465z M74.087,47.417c-0.156,0-0.303-0.097-0.359-0.25
				c-0.074-0.2,0.026-0.42,0.226-0.494c0.602-0.223,1.217-0.436,1.829-0.635c0.203-0.063,0.418,0.046,0.483,0.248
				c0.065,0.202-0.046,0.419-0.246,0.483c-0.604,0.195-1.208,0.405-1.799,0.623C74.176,47.41,74.131,47.417,74.087,47.417z
				 M102.388,46.272c-0.035,0-0.069-0.005-0.104-0.015c-0.609-0.171-1.229-0.33-1.844-0.475c-0.206-0.049-0.335-0.255-0.286-0.461
				c0.049-0.208,0.256-0.335,0.462-0.287c0.626,0.149,1.256,0.31,1.874,0.482c0.205,0.059,0.324,0.27,0.267,0.475
				C102.71,46.162,102.556,46.272,102.388,46.272z M77.738,46.237c-0.168,0-0.322-0.112-0.369-0.281
				c-0.057-0.206,0.063-0.417,0.267-0.473c0.618-0.173,1.25-0.333,1.877-0.479c0.205-0.047,0.412,0.081,0.46,0.287
				c0.048,0.207-0.08,0.413-0.287,0.461c-0.615,0.143-1.236,0.301-1.844,0.47C77.808,46.232,77.772,46.237,77.738,46.237z
				 M98.651,45.394c-0.023,0-0.048-0.002-0.072-0.007c-0.621-0.119-1.252-0.226-1.876-0.318c-0.21-0.031-0.355-0.227-0.324-0.437
				c0.032-0.209,0.228-0.353,0.438-0.322c0.633,0.094,1.275,0.202,1.907,0.322c0.208,0.04,0.345,0.241,0.306,0.45
				C98.994,45.266,98.832,45.394,98.651,45.394z M81.477,45.369c-0.181,0-0.342-0.13-0.377-0.313
				c-0.039-0.208,0.099-0.409,0.307-0.448c0.632-0.119,1.274-0.227,1.909-0.317c0.21-0.03,0.404,0.114,0.435,0.324
				c0.031,0.21-0.114,0.405-0.324,0.435c-0.625,0.091-1.257,0.196-1.878,0.313C81.524,45.367,81.5,45.369,81.477,45.369z
				 M94.855,44.832c-0.013,0-0.026-0.001-0.041-0.002c-0.626-0.067-1.264-0.12-1.896-0.161c-0.212-0.013-0.373-0.194-0.359-0.407
				c0.014-0.211,0.198-0.373,0.408-0.358c0.642,0.04,1.291,0.095,1.928,0.162c0.211,0.023,0.364,0.211,0.342,0.422
				C95.216,44.685,95.05,44.832,94.855,44.832z M85.274,44.818c-0.195,0-0.361-0.148-0.382-0.345
				c-0.021-0.211,0.133-0.4,0.344-0.421c0.635-0.065,1.284-0.118,1.928-0.157c0.213-0.014,0.395,0.147,0.407,0.359
				c0.013,0.212-0.149,0.394-0.36,0.407c-0.634,0.038-1.271,0.09-1.896,0.153C85.301,44.817,85.287,44.818,85.274,44.818z
				 M91.026,44.589c-0.003,0-0.007,0-0.01,0c-0.632-0.014-1.271-0.015-1.903-0.003c-0.214-0.003-0.388-0.164-0.392-0.377
				c-0.004-0.212,0.164-0.387,0.377-0.391c0.644-0.013,1.293-0.012,1.936,0.003c0.211,0.004,0.379,0.18,0.375,0.392
				C91.404,44.422,91.233,44.589,91.026,44.589z"/>
		</g>
		<g>
			<g>
				<path fill="#333333" d="M107.173,84.4l-18.014,8.151L71.143,84.4c0,0,0,20.511,0,20.55c0,1.507,8.066,2.729,18.015,2.729
					s18.015-1.223,18.015-2.729C107.172,104.911,107.173,84.4,107.173,84.4z"/>
			</g>
			<g>
				<path fill="#333333" d="M107.172,84.4c0,0,0,1.847,0,4.429l-18.017,8.146l-18.012-8.151c0-2.579,0-4.424,0-4.424l18.016,8.152
					L107.172,84.4z"/>
			</g>
			<g>
				<g>
					<polygon fill="#757575" points="89.157,90.664 89.157,92.558 58.027,80.088 58.027,78.366 58.039,78.359 89.157,90.664 					
						"/>
				</g>
				<g>
					<polygon fill="#333333" points="89.157,90.665 58.026,78.355 89.387,66.257 119.71,78.366 					"/>
				</g>
				<g>
					<g>
						<rect x="117.483" y="79.597" fill="#333333" width="1.821" height="19.119"/>
					</g>
					<g>
						<path fill="#333333" d="M121.277,99.4c0-1.593-1.289-2.883-2.883-2.883c-1.592,0-2.882,1.29-2.882,2.883
							c0,1.59,1.29,2.884,2.882,2.884C119.988,102.284,121.277,100.99,121.277,99.4z"/>
					</g>
				</g>
				<g>
					<path fill="#333333" d="M120.562,100.845h-3.639c-0.609,1.627-1.956,6.101-1.191,12.232h0.001c0,0.367,1.346,0.665,3.005,0.665
						c1.66,0,3.006-0.298,3.006-0.665C122.508,106.945,121.168,102.472,120.562,100.845z"/>
				</g>
				<g>
					<polygon fill="#B2B2B2" points="89.157,90.664 89.158,92.558 119.71,80.088 119.71,78.366 119.696,78.359 89.158,90.664 					
						"/>
				</g>
			</g>
		</g>
	</g>
	<g>
		<g>
			<g>
				<g id="XMLID_259_">
					<rect x="35.285" y="100.803" fill-rule="evenodd" clip-rule="evenodd" fill="#FF916E" width="27.498" height="8.186"/>
				</g>
				<g id="XMLID_257_">
					<g>
						<rect x="35.285" y="104.896" fill-rule="evenodd" clip-rule="evenodd" fill="#FF916E" width="27.498" height="4.093"/>
					</g>
				</g>
				<g>
					<rect x="58.154" y="100.803" fill-rule="evenodd" clip-rule="evenodd" fill="#333333" width="1.027" height="8.186"/>
				</g>
				<g>
					<rect x="53.258" y="100.803" fill-rule="evenodd" clip-rule="evenodd" fill="#333333" width="1.026" height="8.186"/>
				</g>
				<g>
					<rect x="37.162" y="100.803" fill-rule="evenodd" clip-rule="evenodd" fill="#333333" width="1.027" height="8.186"/>
				</g>
				<g>
					<g>
						<path fill-rule="evenodd" clip-rule="evenodd" fill="#333333" d="M56.134,103.519c-0.435,0-0.787-0.352-0.787-0.788
							c0-0.435,0.353-0.787,0.787-0.787c0.436,0,0.788,0.353,0.788,0.787C56.922,103.166,56.569,103.519,56.134,103.519z"/>
					</g>
					<g opacity="0.6">
						<path fill-rule="evenodd" clip-rule="evenodd" fill="#333333" d="M56.134,105.683c-0.435,0-0.787-0.353-0.787-0.787
							c0-0.436,0.353-0.788,0.787-0.788c0.436,0,0.788,0.353,0.788,0.788C56.922,105.33,56.569,105.683,56.134,105.683z"/>
					</g>
					<g opacity="0.2">
						<path fill-rule="evenodd" clip-rule="evenodd" fill="#333333" d="M56.134,107.848c-0.435,0-0.787-0.353-0.787-0.788
							c0-0.434,0.353-0.787,0.787-0.787c0.436,0,0.788,0.353,0.788,0.787C56.922,107.495,56.569,107.848,56.134,107.848z"/>
					</g>
				</g>
			</g>
			<g>
				<g id="XMLID_218_">
					
						<rect x="46.069" y="104.375" transform="matrix(0.0023 -1 1 0.0023 -70.6128 168.2944)" fill-rule="evenodd" clip-rule="evenodd" fill="#ADEBF6" width="5.931" height="30.32"/>
				</g>
				<g>
					<g>
						<polygon fill-rule="evenodd" clip-rule="evenodd" fill="#ADEBF6" points="64.188,122.534 64.191,120.118 33.873,119.942 
							33.867,122.466 						"/>
					</g>
				</g>
				<g>
					
						<rect x="57.465" y="119.118" transform="matrix(0.0025 -1 1 0.0025 -59.28 179.6949)" fill-rule="evenodd" clip-rule="evenodd" fill="#FF916E" width="5.931" height="0.885"/>
				</g>
				<g>
					
						<rect x="54.401" y="119.106" transform="matrix(0.0023 -1 1 0.0023 -62.3138 176.6418)" fill-rule="evenodd" clip-rule="evenodd" fill="#FF916E" width="5.931" height="0.886"/>
				</g>
				<g>
					
						<rect x="53.434" y="119.017" transform="matrix(0.7094 -0.7048 0.7048 0.7094 -68.5826 72.7914)" fill-rule="evenodd" clip-rule="evenodd" fill="#333333" width="1.083" height="1.083"/>
				</g>
				<g>
					
						<rect x="51.603" y="118.986" transform="matrix(0.708 -0.7062 0.7062 0.708 -69.1834 71.7222)" fill-rule="evenodd" clip-rule="evenodd" fill="#333333" width="1.083" height="1.082"/>
				</g>
			</g>
			<g>
				<g id="XMLID_217_">
					
						<rect x="46.069" y="82.668" transform="matrix(0.0013 -1 1 0.0013 -48.8581 146.7329)" fill-rule="evenodd" clip-rule="evenodd" fill="#B2B2B2" width="5.93" height="30.32"/>
				</g>
				<g>
					<polygon fill-rule="evenodd" clip-rule="evenodd" fill="#B2B2B2" points="64.19,100.811 64.192,98.396 33.873,98.251 
						33.87,100.774 					"/>
				</g>
				<g>
					
						<rect x="57.466" y="97.399" transform="matrix(0.0013 -1 1 0.0013 -37.4906 158.1417)" fill-rule="evenodd" clip-rule="evenodd" fill="#ADEBF6" width="5.93" height="0.885"/>
				</g>
				<g>
					
						<rect x="54.402" y="97.391" transform="matrix(0.0011 -1 1 0.0011 -40.5328 155.0887)" fill-rule="evenodd" clip-rule="evenodd" fill="#ADEBF6" width="5.931" height="0.885"/>
				</g>
				<g>
					
						<rect x="53.434" y="97.305" transform="matrix(0.7075 -0.7067 0.7067 0.7075 -53.3604 66.7619)" fill-rule="evenodd" clip-rule="evenodd" fill="#333333" width="1.083" height="1.083"/>
				</g>
				<g>
					
						<rect x="51.604" y="97.276" transform="matrix(0.708 -0.7062 0.7062 0.708 -53.8519 65.3832)" fill-rule="evenodd" clip-rule="evenodd" fill="#333333" width="1.082" height="1.083"/>
				</g>
			</g>
			<g>
				<g id="XMLID_216_">
					
						<rect x="45.257" y="99.685" transform="matrix(-1.836970e-16 1 -1 -1.836970e-16 161.8365 63.7681)" fill-rule="evenodd" clip-rule="evenodd" fill="#E0E0E0" width="7.554" height="26.234"/>
				</g>
				<g id="XMLID_215_">
					
						<rect x="47.184" y="101.611" transform="matrix(-1.836970e-16 1 -1 -1.836970e-16 163.7628 65.6943)" fill-rule="evenodd" clip-rule="evenodd" fill="#B2B2B2" width="3.701" height="26.234"/>
				</g>
				<g id="XMLID_214_">
					<rect x="51.188" y="109.025" fill-rule="evenodd" clip-rule="evenodd" fill="#FF916E" width="7.574" height="7.554"/>
				</g>
				<g>
					<g>
						<path fill-rule="evenodd" clip-rule="evenodd" fill="#333333" d="M52.625,111.425c-0.436,0-0.788-0.353-0.788-0.787
							c0-0.436,0.352-0.788,0.788-0.788c0.435,0,0.787,0.353,0.787,0.788C53.412,111.072,53.06,111.425,52.625,111.425z"/>
					</g>
					<g opacity="0.6">
						<path fill-rule="evenodd" clip-rule="evenodd" fill="#333333" d="M52.625,113.59c-0.436,0-0.788-0.353-0.788-0.788
							c0-0.435,0.352-0.787,0.788-0.787c0.435,0,0.787,0.353,0.787,0.787C53.412,113.237,53.06,113.59,52.625,113.59z"/>
					</g>
					<g opacity="0.2">
						<path fill-rule="evenodd" clip-rule="evenodd" fill="#333333" d="M52.625,115.755c-0.436,0-0.788-0.353-0.788-0.788
							c0-0.435,0.352-0.787,0.788-0.787c0.435,0,0.787,0.353,0.787,0.787C53.412,115.402,53.06,115.755,52.625,115.755z"/>
					</g>
				</g>
				<g id="XMLID_213_">
					
						<rect x="54.928" y="112.442" transform="matrix(-1.836970e-16 1 -1 -1.836970e-16 170.8653 54.7393)" fill-rule="evenodd" clip-rule="evenodd" fill="#FFFFFF" width="6.271" height="0.72"/>
				</g>
				<g id="XMLID_212_">
					
						<rect x="54.587" y="112.442" transform="matrix(-1.836970e-16 1 -1 -1.836970e-16 169.5688 56.0346)" fill-rule="evenodd" clip-rule="evenodd" fill="#FFFFFF" width="4.359" height="0.72"/>
				</g>
			</g>
		</g>
		<g>
			<g id="XMLID_181_">
				<g id="XMLID_210_">
					<rect x="73.075" y="114.86" fill="#FFFFFF" width="26.604" height="26.604"/>
				</g>
				<g id="XMLID_766_">
					<g id="XMLID_201_">
						<g id="XMLID_272_">
							
								<rect x="86.192" y="127.976" transform="matrix(-1.836970e-16 1 -1 -1.836970e-16 225.5273 30.7959)" fill="#D1D1D1" width="22.347" height="0.372"/>
						</g>
						<g id="XMLID_793_">
							
								<rect x="84.361" y="127.975" transform="matrix(-1.836970e-16 1 -1 -1.836970e-16 223.6958 32.6274)" fill="#D1D1D1" width="22.347" height="0.373"/>
						</g>
						<g id="XMLID_271_">
							
								<rect x="82.529" y="127.976" transform="matrix(-1.836970e-16 1 -1 -1.836970e-16 221.8642 34.459)" fill="#D1D1D1" width="22.347" height="0.372"/>
						</g>
						<g id="XMLID_208_">
							
								<rect x="80.699" y="127.975" transform="matrix(-1.836970e-16 1 -1 -1.836970e-16 220.0337 36.2895)" fill="#D1D1D1" width="22.347" height="0.373"/>
						</g>
						<g id="XMLID_206_">
							
								<rect x="78.868" y="127.975" transform="matrix(-1.836970e-16 1 -1 -1.836970e-16 218.2027 38.1205)" fill="#D1D1D1" width="22.347" height="0.373"/>
						</g>
						<g id="XMLID_205_">
							
								<rect x="77.036" y="127.976" transform="matrix(-1.836970e-16 1 -1 -1.836970e-16 216.3711 39.9521)" fill="#D1D1D1" width="22.347" height="0.372"/>
						</g>
						<g id="XMLID_270_">
							
								<rect x="73.374" y="127.975" transform="matrix(-1.836970e-16 1 -1 -1.836970e-16 212.7085 43.6147)" fill="#D1D1D1" width="22.347" height="0.373"/>
						</g>
						<g id="XMLID_204_">
							
								<rect x="75.205" y="127.976" transform="matrix(-1.836970e-16 1 -1 -1.836970e-16 214.54 41.7832)" fill="#D1D1D1" width="22.347" height="0.372"/>
						</g>
						<g id="XMLID_786_">
							
								<rect x="71.542" y="127.976" transform="matrix(-1.836970e-16 1 -1 -1.836970e-16 210.877 45.4462)" fill="#D1D1D1" width="22.347" height="0.372"/>
						</g>
						<g id="XMLID_269_">
							
								<rect x="69.71" y="127.975" transform="matrix(-1.836970e-16 1 -1 -1.836970e-16 209.0454 47.2778)" fill="#D1D1D1" width="22.347" height="0.373"/>
						</g>
						<g id="XMLID_203_">
							
								<rect x="67.879" y="127.975" transform="matrix(-1.836970e-16 1 -1 -1.836970e-16 207.2144 49.1088)" fill="#D1D1D1" width="22.347" height="0.373"/>
						</g>
						<g id="XMLID_783_">
							
								<rect x="66.048" y="127.975" transform="matrix(-1.836970e-16 1 -1 -1.836970e-16 205.3833 50.9399)" fill="#D1D1D1" width="22.347" height="0.373"/>
						</g>
						<g id="XMLID_202_">
							
								<rect x="64.218" y="127.976" transform="matrix(-1.836970e-16 1 -1 -1.836970e-16 203.5527 52.7705)" fill="#D1D1D1" width="22.347" height="0.372"/>
						</g>
					</g>
					<g id="XMLID_188_">
						<g id="XMLID_198_">
							
								<rect x="75.205" y="138.963" transform="matrix(-1 -1.224647e-16 1.224647e-16 -1 172.7568 278.2979)" fill="#D1D1D1" width="22.347" height="0.372"/>
						</g>
						<g id="XMLID_197_">
							
								<rect x="75.205" y="137.132" transform="matrix(-1 -1.224647e-16 1.224647e-16 -1 172.7568 274.6367)" fill="#D1D1D1" width="22.347" height="0.373"/>
						</g>
						<g id="XMLID_196_">
							
								<rect x="75.205" y="135.301" transform="matrix(-1 -1.224647e-16 1.224647e-16 -1 172.7568 270.9746)" fill="#D1D1D1" width="22.347" height="0.373"/>
						</g>
						<g id="XMLID_195_">
							
								<rect x="75.205" y="133.47" transform="matrix(-1 -1.224647e-16 1.224647e-16 -1 172.7568 267.3116)" fill="#D1D1D1" width="22.347" height="0.372"/>
						</g>
						<g id="XMLID_776_">
							
								<rect x="75.205" y="131.639" transform="matrix(-1 -1.224647e-16 1.224647e-16 -1 172.7568 263.6494)" fill="#D1D1D1" width="22.347" height="0.372"/>
						</g>
						<g id="XMLID_194_">
							
								<rect x="75.205" y="129.807" transform="matrix(-1 -1.224647e-16 1.224647e-16 -1 172.7568 259.9864)" fill="#D1D1D1" width="22.347" height="0.373"/>
						</g>
						<g id="XMLID_193_">
							
								<rect x="75.205" y="126.145" transform="matrix(-1 -1.224647e-16 1.224647e-16 -1 172.7568 252.6612)" fill="#D1D1D1" width="22.347" height="0.372"/>
						</g>
						<g id="XMLID_773_">
							
								<rect x="75.205" y="127.976" transform="matrix(-1 -1.224647e-16 1.224647e-16 -1 172.7568 256.3233)" fill="#D1D1D1" width="22.347" height="0.372"/>
						</g>
						<g id="XMLID_772_">
							
								<rect x="75.205" y="124.313" transform="matrix(-1 -1.224647e-16 1.224647e-16 -1 172.7568 248.9981)" fill="#D1D1D1" width="22.347" height="0.373"/>
						</g>
						<g id="XMLID_192_">
							
								<rect x="75.205" y="122.481" transform="matrix(-1 -1.224647e-16 1.224647e-16 -1 172.7568 245.336)" fill="#D1D1D1" width="22.347" height="0.373"/>
						</g>
						<g id="XMLID_191_">
							
								<rect x="75.205" y="120.651" transform="matrix(-1 -1.224647e-16 1.224647e-16 -1 172.7568 241.6748)" fill="#D1D1D1" width="22.347" height="0.372"/>
						</g>
						<g id="XMLID_190_">
							
								<rect x="75.205" y="118.819" transform="matrix(-1 -1.224647e-16 1.224647e-16 -1 172.7568 238.0117)" fill="#D1D1D1" width="22.347" height="0.373"/>
						</g>
						<g id="XMLID_189_">
							
								<rect x="75.205" y="116.988" transform="matrix(-1 -1.224647e-16 1.224647e-16 -1 172.7568 234.3486)" fill="#D1D1D1" width="22.347" height="0.372"/>
						</g>
					</g>
				</g>
				<g>
					<g id="XMLID_187_">
						<g>
							<polygon fill="#ADEBF6" points="79.957,136.57 79.957,134.537 87.28,134.537 87.28,131.077 83.619,131.077 83.619,127.614 
								80.035,123.876 80.452,123.478 84.194,127.383 84.194,130.502 87.856,130.502 87.856,135.112 80.53,135.112 80.53,135.995 
								91.231,135.995 91.231,136.57 							"/>
						</g>
					</g>
					<g id="XMLID_186_">
						<path fill="#333333" d="M80.243,124.338c-0.424,0-0.769-0.344-0.769-0.768c0-0.425,0.345-0.768,0.769-0.768
							c0.425,0,0.768,0.343,0.768,0.768C81.011,123.994,80.668,124.338,80.243,124.338z"/>
					</g>
					<g id="XMLID_761_">
						<path fill="#333333" d="M83.905,128.32c-0.424,0-0.768-0.343-0.768-0.768s0.344-0.768,0.768-0.768
							c0.425,0,0.77,0.343,0.77,0.768S84.33,128.32,83.905,128.32z"/>
					</g>
					<g id="XMLID_185_">
						<path fill="#333333" d="M83.905,131.508c-0.424,0-0.768-0.344-0.768-0.768c0-0.425,0.344-0.768,0.768-0.768
							c0.425,0,0.77,0.343,0.77,0.768C84.675,131.164,84.33,131.508,83.905,131.508z"/>
					</g>
					<g id="XMLID_184_">
						<path fill="#333333" d="M87.569,131.508c-0.425,0-0.769-0.344-0.769-0.768c0-0.425,0.344-0.768,0.769-0.768
							c0.424,0,0.768,0.343,0.768,0.768C88.337,131.164,87.993,131.508,87.569,131.508z"/>
					</g>
					<g id="XMLID_183_">
						<path fill="#333333" d="M87.569,135.498c-0.425,0-0.769-0.343-0.769-0.768c0-0.424,0.344-0.768,0.769-0.768
							c0.424,0,0.768,0.344,0.768,0.768C88.337,135.155,87.993,135.498,87.569,135.498z"/>
					</g>
					<g id="XMLID_182_">
						<path fill="#333333" d="M80.243,135.498c-0.424,0-0.769-0.343-0.769-0.768c0-0.424,0.345-0.768,0.769-0.768
							c0.425,0,0.768,0.344,0.768,0.768C81.011,135.155,80.668,135.498,80.243,135.498z"/>
					</g>
					<g id="XMLID_266_">
						<path fill="#333333" d="M80.243,137.184c-0.424,0-0.769-0.343-0.769-0.768c0-0.424,0.345-0.768,0.769-0.768
							c0.425,0,0.768,0.344,0.768,0.768C81.011,136.841,80.668,137.184,80.243,137.184z"/>
					</g>
					<g id="XMLID_755_">
						<circle fill="#333333" cx="91.231" cy="136.416" r="0.768"/>
					</g>
				</g>
			</g>
			<g id="XMLID_172_">
				<g id="XMLID_178_">
					<polygon fill-rule="evenodd" clip-rule="evenodd" fill="#FF916E" points="98.06,128.692 84.971,115.487 86.879,113.565 
						99.97,126.771 					"/>
				</g>
				<g id="XMLID_752_">
					<polygon fill-rule="evenodd" clip-rule="evenodd" fill="#DD5A3C" points="98.675,128.073 85.586,114.869 86.266,114.185 
						99.355,127.39 					"/>
				</g>
				<g id="XMLID_173_">
					<g id="XMLID_264_">
						<path fill-rule="evenodd" clip-rule="evenodd" fill="#FFFFFF" d="M100.563,129.271c0,0-0.562-2.469-0.594-2.5l0,0l0,0l0,0
							c-0.09-0.09-0.309-0.018-0.487,0.163c-0.164,0.165-0.232,0.358-0.172,0.46c-0.102-0.06-0.295,0.01-0.459,0.174
							c-0.164,0.166-0.231,0.359-0.172,0.461c-0.102-0.06-0.295,0.009-0.459,0.175c-0.179,0.181-0.251,0.398-0.16,0.489
							C98.092,128.723,100.563,129.271,100.563,129.271z"/>
					</g>
					<g id="XMLID_176_">
						<polygon fill-rule="evenodd" clip-rule="evenodd" fill="#333333" points="100.28,128.077 99.369,128.994 100.563,129.271 
													"/>
					</g>
				</g>
			</g>
		</g>
		<g>
			<g>
				<path fill="#757575" d="M81.007,58.825c0,2.273-1.843,4.115-4.116,4.115H64.608c-2.273,0-4.116-1.842-4.116-4.115V40.688
					c0-2.273,1.844-4.115,4.116-4.115h12.282c2.273,0,4.116,1.842,4.116,4.115V58.825z"/>
			</g>
			<g>
				<rect x="62.182" y="38.78" fill="#FFFFFF" width="17.024" height="3.522"/>
			</g>
			<g>
				<rect x="62.182" y="45.34" fill="#333333" width="2.561" height="2.561"/>
			</g>
			<g>
				<rect x="62.182" y="48.509" fill="#333333" width="2.561" height="2.559"/>
			</g>
			<g>
				<rect x="62.182" y="51.677" fill="#333333" width="2.561" height="2.56"/>
			</g>
			<g>
				<rect x="62.182" y="54.845" fill="#333333" width="2.561" height="2.56"/>
			</g>
			<g>
				<rect x="65.35" y="45.34" fill="#333333" width="2.56" height="2.561"/>
			</g>
			<g>
				<rect x="65.35" y="48.509" fill="#333333" width="2.56" height="2.559"/>
			</g>
			<g>
				<rect x="65.35" y="51.677" fill="#333333" width="2.56" height="2.56"/>
			</g>
			<g>
				<rect x="65.35" y="54.845" fill="#333333" width="2.56" height="2.56"/>
			</g>
			<g>
				<rect x="68.422" y="45.34" fill="#333333" width="2.561" height="2.561"/>
			</g>
			<g>
				<rect x="68.422" y="48.509" fill="#333333" width="2.561" height="2.559"/>
			</g>
			<g>
				<rect x="68.422" y="51.677" fill="#333333" width="2.561" height="2.56"/>
			</g>
			<g>
				<rect x="73.29" y="51.677" fill="#333333" width="2.561" height="2.56"/>
			</g>
			<g>
				<rect x="76.362" y="51.677" fill="#333333" width="2.559" height="2.56"/>
			</g>
			<g>
				<rect x="73.29" y="48.509" fill="#333333" width="2.561" height="2.559"/>
			</g>
			<g>
				<rect x="76.362" y="48.509" fill="#333333" width="2.559" height="2.559"/>
			</g>
			<g>
				<rect x="73.29" y="45.34" fill="#333333" width="2.561" height="2.561"/>
			</g>
			<g>
				<rect x="76.362" y="45.34" fill="#333333" width="2.559" height="2.561"/>
			</g>
			<g>
				<rect x="68.422" y="54.845" fill="#333333" width="2.561" height="2.56"/>
			</g>
			<g>
				<rect x="62.182" y="57.949" fill="#333333" width="2.561" height="2.56"/>
			</g>
			<g>
				<rect x="65.35" y="57.949" fill="#333333" width="2.56" height="2.56"/>
			</g>
			<g>
				<rect x="68.422" y="57.949" fill="#333333" width="2.561" height="2.56"/>
			</g>
			<g>
				<rect x="73.125" y="57.917" fill="#FF916E" width="5.962" height="2.56"/>
			</g>
			<g>
				<rect x="73.125" y="54.558" fill="#ADEBF6" width="5.962" height="2.56"/>
			</g>
		</g>
		<g>
			<g>
				<path fill="#B2B2B2" d="M61.659,68.835c-2.461,0-4.774-0.957-6.515-2.697c-1.739-1.739-2.697-4.054-2.697-6.514
					c0-2.46,0.958-4.773,2.697-6.514c1.74-1.739,4.054-2.698,6.515-2.698c2.461,0,4.773,0.959,6.514,2.698
					c1.739,1.74,2.698,4.054,2.698,6.514c0,2.46-0.959,4.774-2.698,6.514C66.433,67.878,64.12,68.835,61.659,68.835z M61.659,53.101
					c-1.742,0-3.381,0.679-4.614,1.911c-1.231,1.231-1.909,2.87-1.909,4.612c0,1.743,0.679,3.381,1.909,4.613
					c1.233,1.232,2.872,1.91,4.614,1.91c1.741,0,3.38-0.678,4.613-1.91c1.23-1.233,1.909-2.87,1.909-4.613
					c0-1.742-0.679-3.381-1.909-4.612C65.039,53.779,63.4,53.101,61.659,53.101z"/>
			</g>
			<g>
				
					<rect x="42.479" y="69.484" transform="matrix(0.7069 -0.7073 0.7073 0.7069 -35.3086 56.4445)" fill="#B2B2B2" width="15.952" height="2.688"/>
			</g>
		</g>
		<g>
			<g>
				<path fill="#FFFFFF" d="M109.098,62.501v0.919c0,0.508,0.401,0.919,0.896,0.919h35.239c0.497,0,0.898-0.411,0.898-0.919v-0.919
					H109.098z"/>
			</g>
			<g>
				<path fill="#686868" d="M144.418,62.501V43.06c0-1.082-0.856-1.958-1.913-1.958h-29.782c-1.056,0-1.913,0.876-1.913,1.958
					v19.441H144.418z"/>
			</g>
			<g>
				<rect x="112.479" y="42.957" fill="#E6E6E6" width="30.271" height="18.041"/>
			</g>
			<g>
				<path fill="#FFFFFF" d="M128.107,42.038c0,0.279-0.221,0.505-0.493,0.505c-0.272,0-0.493-0.226-0.493-0.505
					c0-0.278,0.221-0.506,0.493-0.506C127.887,41.532,128.107,41.76,128.107,42.038z"/>
			</g>
		</g>
		<g id="XMLID_170_">
			<g id="XMLID_275_">
				<g id="XMLID_277_">
					<path fill="#FFFFFF" d="M116.407,143.982c-1.499,0-5.52,0.018-7.538-1.025c-4.448-2.303-9.517,0.431-9.562,3.879h15.45
						L116.407,143.982z"/>
				</g>
			</g>
			<g id="XMLID_273_">
				<g id="XMLID_274_">
					<path fill="#FFFFFF" d="M84.721,143.982c1.499,0,5.519,0.018,7.537-1.025c4.449-2.303,9.517,0.431,9.562,3.879H86.37
						L84.721,143.982z"/>
				</g>
			</g>
			<g id="XMLID_171_">
				<path fill="#333333" d="M115.423,146.292v1.33H101.9c-0.068,0.198-0.256,0.341-0.476,0.341h-1.92
					c-0.223,0-0.41-0.143-0.477-0.341H85.506v-1.33h13.497c-0.001,0.014-0.002,0.027-0.002,0.041c0,0.277,0.227,0.503,0.504,0.503
					h1.92c0.277,0,0.502-0.226,0.502-0.503c0-0.014-0.001-0.027-0.002-0.041H115.423z"/>
			</g>
		</g>
		<g>
			<g>
				<path fill="#333333" d="M141.124,104.328h-12.667c-0.511,0-0.924,0.413-0.924,0.925v16.675c0,0.51,0.413,0.923,0.924,0.923
					h12.667c0.509,0,0.923-0.413,0.923-0.923v-16.675C142.047,104.741,141.633,104.328,141.124,104.328z"/>
			</g>
			<g>
				<path fill="#FFFFFF" d="M134.79,122.38c-0.205,0-0.372-0.166-0.372-0.37c0-0.207,0.167-0.372,0.372-0.372
					c0.206,0,0.37,0.165,0.37,0.372C135.16,122.214,134.996,122.38,134.79,122.38z"/>
			</g>
			<g>
				<rect x="129.181" y="106.119" fill="#FFFFFF" width="11.219" height="14.941"/>
			</g>
			<g>
				<g>
					<g>
						<path fill="#FF916E" d="M134.498,113.881v-4.774c-2.338,0.156-4.19,2.098-4.19,4.476c0,2.479,2.01,4.49,4.489,4.49
							c2.38,0,4.322-1.851,4.476-4.191H134.498z"/>
					</g>
					<g>
						<path fill="#FFDB76" d="M135.271,113.283h3.707c-0.102-1.436-0.931-2.672-2.117-3.347L135.271,113.283z"/>
					</g>
					<g>
						<path fill="#ADEBF6" d="M135.097,109.402v2.853l1.226-2.579C135.93,109.522,135.52,109.431,135.097,109.402L135.097,109.402z"
							/>
					</g>
				</g>
			</g>
		</g>
	</g>
</g>
</svg>
